<?xml version="1.0" encoding="utf-8"?>
<!-- Generator: Adobe Illustrator 19.0.0, SVG Export Plug-In . SVG Version: 6.00 Build 0)  -->
<svg xmlns="http://www.w3.org/2000/svg" xmlns:xlink="http://www.w3.org/1999/xlink" version="1.1" id="Layer_1" x="0px" y="0px" viewBox="0 2 98 98" style="enable-background:new 0 2 98 98;" xml:space="preserve" width="512" height="512">
<style type="text/css">
	.st0{fill:url(#SVGID_1_);}
	.st1{fill:url(#SVGID_2_);}
	.st2{fill:url(#SVGID_3_);}
	.st3{fill:url(#SVGID_4_);}
	.st4{fill:url(#SVGID_5_);}
	.st5{fill:url(#SVGID_6_);}
	.st6{fill:url(#SVGID_7_);}
	.st7{fill:url(#SVGID_8_);}
	.st8{fill:url(#SVGID_9_);}
	.st9{fill:url(#SVGID_10_);}
	.st10{fill:url(#SVGID_11_);}
	.st11{fill:url(#SVGID_12_);}
</style>
<g>
	
		<linearGradient id="SVGID_1_" gradientUnits="userSpaceOnUse" x1="37.8875" y1="100.25" x2="37.8875" y2="5.4997" gradientTransform="matrix(1 0 0 -1 0 104)">
		<stop offset="0" style="stop-color:#00EFD1"/>
		<stop offset="1" style="stop-color:#00ACEA"/>
	</linearGradient>
	<path class="st0" d="M12.9,57.9l-5.5,9.2c-0.5,0.9-0.6,2-0.1,3c0.5,0.9,1.5,1.5,2.5,1.6l25,0.8l0,0h0.1h36.7c1.1,0,2.1-0.6,2.6-1.5   s0.5-2.1,0-3L55.9,35.1c-0.5-0.9-1.5-1.5-2.6-1.5l0,0h-0.1l0,0l-24.8,0.9c-1,0-1.9,0.6-2.5,1.5l-0.5,0.8l-6.5-16.6   c-0.4-1.1-1.6-1.9-2.8-1.9l0,0c-1.2,0-2.3,0.7-2.8,1.9L1.4,49.7c-0.4,0.9-0.3,2,0.3,2.8s1.5,1.3,2.5,1.3h8.7V57.9z M49.7,66.4   l3.6-5.9l3.7,5.9H49.7z M66.6,66.4h-2.5l-8.2-13.2c-0.5-0.9-1.5-1.4-2.5-1.4l0,0c-1,0-2,0.5-2.5,1.4l-8.1,13.2h-2.5l13.2-23.7   L66.6,66.4z M30.2,40.4L48,39.8L33.3,66.3l-18.1-0.6L30.2,40.4z M16.1,29.4l5.5,13.9l-2.7,4.5H8.6L16.1,29.4z"/>
	
		<linearGradient id="SVGID_2_" gradientUnits="userSpaceOnUse" x1="48.57" y1="100.25" x2="48.57" y2="5.4997" gradientTransform="matrix(1 0 0 -1 0 104)">
		<stop offset="0" style="stop-color:#00EFD1"/>
		<stop offset="1" style="stop-color:#00ACEA"/>
	</linearGradient>
	<path class="st1" d="M88.8,80.9c-3.1,0-4.4-1-6.3-2.4C80.4,77,77.7,75,72.7,75s-7.7,2-9.9,3.5c-1.9,1.4-3.2,2.4-6.2,2.4   c-3.1,0-4.4-1-6.3-2.4C48.1,77,45.5,75,40.5,75s-7.7,2-9.9,3.5c-1.9,1.4-3.2,2.4-6.2,2.4c-3.1,0-4.4-1-6.3-2.4   C15.9,77,13.3,75,8.3,75c-1.7,0-3,1.3-3,3s1.3,3,3,3c3,0,4.4,1,6.2,2.4c2.2,1.6,4.8,3.5,9.9,3.5c5,0,7.6-2,9.8-3.5   c1.9-1.4,3.3-2.4,6.3-2.4s4.4,1,6.2,2.4c2.2,1.6,4.8,3.5,9.9,3.5c5,0,7.6-2,9.8-3.5c1.9-1.4,3.3-2.4,6.3-2.4c3.1,0,4.4,1,6.3,2.4   c2.1,1.6,4.8,3.5,9.8,3.5c1.7,0,3-1.3,3-3S90.5,80.9,88.8,80.9z"/>
	
		<linearGradient id="SVGID_3_" gradientUnits="userSpaceOnUse" x1="48.57" y1="100.25" x2="48.57" y2="5.4997" gradientTransform="matrix(1 0 0 -1 0 104)">
		<stop offset="0" style="stop-color:#00EFD1"/>
		<stop offset="1" style="stop-color:#00ACEA"/>
	</linearGradient>
	<path class="st2" d="M88.8,92.6c-3.1,0-4.4-1-6.3-2.4c-2.1-1.6-4.8-3.5-9.8-3.5s-7.7,2-9.9,3.5c-1.9,1.4-3.2,2.4-6.2,2.4   c-3.1,0-4.4-1-6.3-2.4c-2.1-1.6-4.8-3.5-9.8-3.5s-7.7,2-9.9,3.5c-1.9,1.4-3.2,2.4-6.2,2.4c-3.1,0-4.4-1-6.3-2.4   c-2.1-1.6-4.8-3.5-9.8-3.5c-1.7,0-3,1.3-3,3s1.3,3,3,3c3,0,4.4,1,6.2,2.4c2.2,1.6,4.8,3.5,9.9,3.5c5,0,7.6-1.9,9.8-3.5   c1.9-1.4,3.3-2.4,6.3-2.4s4.4,1,6.2,2.4c2.2,1.6,4.8,3.5,9.9,3.5c5,0,7.6-1.9,9.8-3.5c1.9-1.4,3.3-2.4,6.3-2.4c3.1,0,4.4,1,6.3,2.4   c2.1,1.6,4.8,3.5,9.8,3.5c1.7,0,3-1.3,3-3S90.5,92.6,88.8,92.6z"/>
	
		<linearGradient id="SVGID_4_" gradientUnits="userSpaceOnUse" x1="76.62" y1="100.25" x2="76.62" y2="5.4997" gradientTransform="matrix(1 0 0 -1 0 104)">
		<stop offset="0" style="stop-color:#00EFD1"/>
		<stop offset="1" style="stop-color:#00ACEA"/>
	</linearGradient>
	<path class="st3" d="M76.6,33.4c5.5,0,9.9-4.4,9.9-9.9s-4.4-9.9-9.9-9.9s-9.9,4.4-9.9,9.9S71.1,33.4,76.6,33.4z M76.6,19.6   c2.2,0,3.9,1.7,3.9,3.9s-1.8,3.9-3.9,3.9s-3.9-1.7-3.9-3.9S74.4,19.6,76.6,19.6z"/>
	
		<linearGradient id="SVGID_5_" gradientUnits="userSpaceOnUse" x1="76.62" y1="100.25" x2="76.62" y2="5.4997" gradientTransform="matrix(1 0 0 -1 0 104)">
		<stop offset="0" style="stop-color:#00EFD1"/>
		<stop offset="1" style="stop-color:#00ACEA"/>
	</linearGradient>
	<path class="st4" d="M76.6,12.3c1.7,0,3-1.3,3-3V6.4c0-1.7-1.3-3-3-3s-3,1.3-3,3v2.9C73.6,11,74.9,12.3,76.6,12.3z"/>
	
		<linearGradient id="SVGID_6_" gradientUnits="userSpaceOnUse" x1="76.62" y1="100.25" x2="76.62" y2="5.4997" gradientTransform="matrix(1 0 0 -1 0 104)">
		<stop offset="0" style="stop-color:#00EFD1"/>
		<stop offset="1" style="stop-color:#00ACEA"/>
	</linearGradient>
	<path class="st5" d="M73.6,37.8v2.9c0,1.7,1.3,3,3,3s3-1.3,3-3v-2.9c0-1.7-1.3-3-3-3S73.6,36.1,73.6,37.8z"/>
	
		<linearGradient id="SVGID_7_" gradientUnits="userSpaceOnUse" x1="92.37" y1="100.25" x2="92.37" y2="5.4997" gradientTransform="matrix(1 0 0 -1 0 104)">
		<stop offset="0" style="stop-color:#00EFD1"/>
		<stop offset="1" style="stop-color:#00ACEA"/>
	</linearGradient>
	<path class="st6" d="M93.8,20.5h-2.9c-1.7,0-3,1.3-3,3s1.3,3,3,3h2.9c1.7,0,3-1.3,3-3S95.5,20.5,93.8,20.5z"/>
	
		<linearGradient id="SVGID_8_" gradientUnits="userSpaceOnUse" x1="60.97" y1="100.25" x2="60.97" y2="5.4997" gradientTransform="matrix(1 0 0 -1 0 104)">
		<stop offset="0" style="stop-color:#00EFD1"/>
		<stop offset="1" style="stop-color:#00ACEA"/>
	</linearGradient>
	<path class="st7" d="M59.5,26.5h2.9c1.7,0,3-1.3,3-3s-1.3-3-3-3h-2.9c-1.7,0-3,1.3-3,3S57.8,26.5,59.5,26.5z"/>
	
		<linearGradient id="SVGID_9_" gradientUnits="userSpaceOnUse" x1="87.77" y1="100.25" x2="87.77" y2="5.4997" gradientTransform="matrix(1 0 0 -1 0 104)">
		<stop offset="0" style="stop-color:#00EFD1"/>
		<stop offset="1" style="stop-color:#00ACEA"/>
	</linearGradient>
	<path class="st8" d="M86.7,16.5c0.8,0,1.5-0.3,2.1-0.9l2.1-2.1c1.2-1.2,1.2-3.1,0-4.2c-1.2-1.2-3.1-1.2-4.2,0l-2.1,2.1   c-1.2,1.2-1.2,3.1,0,4.2C85.2,16.2,85.9,16.5,86.7,16.5z"/>
	
		<linearGradient id="SVGID_10_" gradientUnits="userSpaceOnUse" x1="65.52" y1="100.25" x2="65.52" y2="5.4997" gradientTransform="matrix(1 0 0 -1 0 104)">
		<stop offset="0" style="stop-color:#00EFD1"/>
		<stop offset="1" style="stop-color:#00ACEA"/>
	</linearGradient>
	<path class="st9" d="M64.3,31.5l-2,2.1c-1.1,1.2-1.1,3.1,0.1,4.2c0.6,0.6,1.3,0.8,2.1,0.8c0.8,0,1.6-0.3,2.2-0.9l2-2.1   c1.1-1.2,1.1-3.1-0.1-4.2S65.5,30.3,64.3,31.5z"/>
	
		<linearGradient id="SVGID_11_" gradientUnits="userSpaceOnUse" x1="87.77" y1="100.25" x2="87.77" y2="5.4997" gradientTransform="matrix(1 0 0 -1 0 104)">
		<stop offset="0" style="stop-color:#00EFD1"/>
		<stop offset="1" style="stop-color:#00ACEA"/>
	</linearGradient>
	<path class="st10" d="M88.8,31.5c-1.2-1.2-3.1-1.2-4.2,0c-1.2,1.2-1.2,3.1,0,4.2l2.1,2.1c0.6,0.6,1.4,0.9,2.1,0.9s1.5-0.3,2.1-0.9   c1.2-1.2,1.2-3.1,0-4.2L88.8,31.5z"/>
	
		<linearGradient id="SVGID_12_" gradientUnits="userSpaceOnUse" x1="65.57" y1="100.25" x2="65.57" y2="5.4997" gradientTransform="matrix(1 0 0 -1 0 104)">
		<stop offset="0" style="stop-color:#00EFD1"/>
		<stop offset="1" style="stop-color:#00ACEA"/>
	</linearGradient>
	<path class="st11" d="M64.3,15.6c0.6,0.6,1.4,0.9,2.2,0.9c0.7,0,1.5-0.3,2.1-0.8c1.2-1.1,1.2-3,0.1-4.2l-2-2.1   c-1.1-1.2-3-1.2-4.2-0.1s-1.2,3-0.1,4.2L64.3,15.6z"/>
</g>

</svg>
